<?xml version="1.0" encoding="UTF-8"?>
<svg class="icon-close" fill="none" viewBox="0 0 20 20" xmlns="http://www.w3.org/2000/svg">
<path d="m11.458 10 4.8084-4.8083c0.275-0.275 0.275-0.725 0-1s-0.725-0.275-1 0l-4.8084 4.8083-4.8083-4.8083c-0.275-0.275-0.725-0.275-1 0s-0.275 0.725 0 1l4.8083 4.8083-4.8083 4.8083c-0.275 0.275-0.275 0.725 0 1 0.14167 0.1417 0.31667 0.2083 0.5 0.2083s0.36667-0.0666 0.5-0.2083l4.8083-4.8083 4.8084 4.8083c0.1416 0.1417 0.3166 0.2083 0.5 0.2083 0.1833 0 0.3666-0.0666 0.5-0.2083 0.275-0.275 0.275-0.725 0-1l-4.8084-4.8083z" fill="#0D3880"/>
</svg>
