<svg width="113" height="110" viewBox="0 0 113 110" fill="none" xmlns="http://www.w3.org/2000/svg">
<path d="M54.4923 32.452C57.0885 32.452 59.4683 32.7495 61.6318 33.3444C63.7952 33.8853 65.526 34.6425 66.8241 35.616C68.1763 36.5896 68.8523 37.6443 68.8523 38.7801C68.8523 39.321 68.663 39.8619 68.2844 40.4027C67.9058 40.8895 67.392 41.1329 66.743 41.1329C66.0939 41.1329 65.5531 40.9706 65.1204 40.6461C64.7418 40.3216 64.3361 39.943 63.9034 39.5103C63.5248 39.0776 62.9569 38.6719 62.1997 38.2933C61.4966 37.9688 60.496 37.6713 59.1979 37.4009C57.8998 37.1305 56.4124 36.9953 54.7357 36.9953C51.7069 36.9953 48.9755 37.7525 46.5416 39.2669C44.1077 40.7813 42.1876 42.8366 40.7814 45.4328C39.3751 47.9748 38.672 50.8414 38.672 54.0326C38.672 57.2778 39.3481 60.1984 40.7002 62.7946C42.0524 65.3908 43.9184 67.446 46.2982 68.9605C48.678 70.4208 51.4635 71.151 54.6546 71.151C56.8181 71.151 58.4948 70.9617 59.6847 70.5831C60.8746 70.2045 61.9022 69.7718 62.7676 69.285C63.7952 68.69 64.5254 68.1221 64.9581 67.5813C65.4449 66.9863 66.0669 66.6888 66.8241 66.6888C67.5272 66.6888 68.041 66.9052 68.3656 67.3379C68.7442 67.7165 68.9335 68.2303 68.9335 68.8793C68.9335 69.7447 68.2844 70.7183 66.9864 71.8C65.7424 72.8277 64.0116 73.7471 61.794 74.5584C59.5765 75.3156 57.0344 75.6943 54.1678 75.6943C50.1113 75.6943 46.5416 74.7477 43.4587 72.8547C40.4298 70.9617 38.05 68.3926 36.3192 65.1474C34.6425 61.8481 33.8042 58.1431 33.8042 54.0326C33.8042 50.0842 34.6696 46.4875 36.4004 43.2423C38.1311 39.9971 40.538 37.4009 43.6209 35.4538C46.7579 33.4526 50.3818 32.452 54.4923 32.452Z" fill="#2B3C50"/>
<path d="M57.8723 0C88.1169 0 112.636 24.5181 112.636 54.7627C112.636 85.0073 88.1169 109.525 57.8723 109.525C29.9234 109.525 6.86483 88.5877 3.52563 61.542C7.3883 84.18 27.1029 101.412 50.842 101.412C77.3525 101.412 98.843 79.9207 98.843 53.4102C98.8428 26.8998 77.3524 5.40845 50.842 5.4082C33.4892 5.4082 18.287 14.6168 9.85474 28.4131C19.1679 11.4774 37.1796 0.00016988 57.8723 0Z" fill="#C77624"/>
<circle cx="3.38042" cy="56.1149" r="3.38042" fill="#C77624"/>
</svg>
